<svg data-name="レイヤー 1" xmlns="http://www.w3.org/2000/svg" viewBox="0 0 160 160" width="160" height="160" style="fill:#fc0d1b"><path style="fill:none" d="M0 0h160v160H0z"/><path d="M126.23 73.29l-21.55 12.9V75.44a3 3 0 0 0-3-3h-9.12a17.09 17.09 0 1 0-24.13-21 17.08 17.08 0 1 0-24.13 21h-9.08a3 3 0 0 0-3 3v41.23a3 3 0 0 0 3 3h66.42a3 3 0 0 0 3-3v-10.75l21.55 12.89a1 1 0 0 0 1.59-.9V74.19a1.05 1.05 0 0 0-1.55-.9zM84.4 49.51a7.88 7.88 0 1 1-7.88 7.88 7.88 7.88 0 0 1 7.88-7.88zm-31.94 0a7.88 7.88 0 1 1-7.88 7.88 7.88 7.88 0 0 1 7.88-7.88zm16 13.91a17.18 17.18 0 0 0 7.81 9H60.62a17.18 17.18 0 0 0 7.81-9z" style="fill:#fc0d1b"/></svg>