<svg id="レイヤー_1" data-name="レイヤー 1" xmlns="http://www.w3.org/2000/svg" viewBox="0 0 160 160" width="160" height="160" style="fill:#fc0d1b"><defs><style>.cls-2{fill:#fc0d1b}</style></defs><path style="fill:none" d="M0 0h160v160H0z"/><path class="cls-2" d="M128.16 61.52h-4a.56.56 0 0 0-.57.56v49.27a.56.56 0 0 1-.76.53 54.94 54.94 0 0 0-19.42-3.39 88.2 88.2 0 0 0-21.52 2.29l-2.06.58a.55.55 0 0 1-.31 0l-2.06-.58a88.2 88.2 0 0 0-21.52-2.29 54.94 54.94 0 0 0-19.42 3.39.56.56 0 0 1-.76-.53V62.08a.56.56 0 0 0-.56-.56h-3.36a.56.56 0 0 0-.57.56V116a.56.56 0 0 0 .57.57h96.32a.56.56 0 0 0 .57-.57V62.08a.56.56 0 0 0-.57-.56z"/><path class="cls-2" d="M41.76 105.13c1.74-.8 6.44-2.5 15.11-2.5 12.14 0 17.78 1.77 19.67 2.55a.55.55 0 0 0 .77-.52V54.94a.57.57 0 0 0-.32-.51c-1.32-.62-6.81-2.75-20.12-2.75-9.71 0-14.44 2.13-15.61 2.75a.57.57 0 0 0-.29.5v49.69a.55.55 0 0 0 .79.51zm41.03.05c1.89-.78 7.53-2.55 19.67-2.55 8.67 0 13.37 1.7 15.11 2.5a.55.55 0 0 0 .79-.51V54.93a.55.55 0 0 0-.29-.5c-1.17-.62-5.9-2.75-15.61-2.75h-.33v-7.93a.26.26 0 0 0-.41-.22l-4.84 3.11a.82.82 0 0 1-.9 0l-4.84-3.11a.26.26 0 0 0-.41.22v8.77l-3.08.35h-.05a23.15 23.15 0 0 0-5.27 1.56.56.56 0 0 0-.31.5v49.72a.55.55 0 0 0 .77.53z"/></svg>