<svg xmlns="http://www.w3.org/2000/svg" width="60.781" height="48.41" viewBox="0 0 60.781 48.41"><path d="M19.119 48.41c22.935 0 35.478-18.62 35.478-34.78 0-.53 0-1.05-.036-1.58a25.14 25.14 0 0 0 6.221-6.32 25.706 25.706 0 0 1-7.162 1.92A12.32 12.32 0 0 0 59.101.89a25.385 25.385 0 0 1-7.917 2.97 12.65 12.65 0 0 0-17.642-.54A12.093 12.093 0 0 0 29.935 15a35.619 35.619 0 0 1-25.7-12.77 12.091 12.091 0 0 0 3.861 16.32 12.566 12.566 0 0 1-5.66-1.53v.15a12.287 12.287 0 0 0 10 11.98 12.6 12.6 0 0 1-5.631.22 12.45 12.45 0 0 0 11.65 8.48A25.394 25.394 0 0 1 2.97 43.1 29.477 29.477 0 0 1 0 42.92a35.791 35.791 0 0 0 19.113 5.48" style="fill-rule:evenodd;fill:#fff"/></svg>