<svg xmlns="http://www.w3.org/2000/svg" width="56" height="56" viewBox="0 0 56 56" style="fill:#fff"><path data-name="シェイプ 1482" d="M39.777 22.01H16.22a.22.22 0 0 0-.219.221v1.775a.22.22 0 0 0 .219.222h1.342L21.19 46.8a.22.22 0 0 0 .216.186h13.185a.22.22 0 0 0 .216-.186l3.628-22.575h1.342a.22.22 0 0 0 .219-.222v-1.775a.22.22 0 0 0-.219-.218zm-6.221 20.375a.041.041 0 0 1-.041.034H22.447l-.325-2.018a.042.042 0 0 1 .041-.048h11.671a.042.042 0 0 1 .041.048zm1.892-12.5a.042.042 0 0 1-.041.034H20.59a.042.042 0 0 1-.041-.034l-.318-1.983a.041.041 0 0 1 .04-.048h15.455a.041.041 0 0 1 .04.048z" style="fill-rule:evenodd"/></svg>