<svg data-name="レイヤー 1" xmlns="http://www.w3.org/2000/svg" viewBox="0 0 160 160" width="160" height="160" style="fill:#fc0d1b"><path style="fill:none" d="M0 0h160v160H0z"/><path d="M129.27 43.67A17.25 17.25 0 0 0 126 29.45a.39.39 0 0 0-.66.1 22.07 22.07 0 0 1-29.11 11.88.8.8 0 0 0-1 .26l-64.78 88a.65.65 0 0 0 .79 1l13.56-6 19.13-26.03c.16.09.34.18.52.26 11.4 5.17 18.49 5.66 26 1.72 4.6-2.41 6.22-7.58 6.11-11.42A11.41 11.41 0 0 0 113 73.89a12.31 12.31 0 0 0 8.23-19 17.29 17.29 0 0 0 8.04-11.22z" style="fill:#fc0d1b"/></svg>